<svg xmlns="http://www.w3.org/2000/svg" width="21.091" height="16.873" viewBox="0 0 21.091 16.873"><defs><style>.a{fill:#fff;}</style></defs><g transform="translate(0 -51.2)"><g transform="translate(1.758 53.309)"><g transform="translate(0 0)"><rect class="a" width="0.703" height="11.6"/></g></g><g transform="translate(3.515 53.309)"><g transform="translate(0 0)"><rect class="a" width="1.055" height="9.842"/></g></g><g transform="translate(5.624 53.309)"><g transform="translate(0 0)"><rect class="a" width="0.703" height="9.842"/></g></g><g transform="translate(7.03 53.309)"><g transform="translate(0 0)"><rect class="a" width="1.055" height="9.842"/></g></g><g transform="translate(8.788 53.309)"><g transform="translate(0 0)"><rect class="a" width="0.703" height="9.842"/></g></g><g transform="translate(0 51.2)"><g transform="translate(0 0)"><path class="a" d="M.352,51.2A.332.332,0,0,0,0,51.551v1.758H.7V51.9H2.109v-.7Z" transform="translate(0 -51.2)"/></g></g><g transform="translate(10.194 53.309)"><g transform="translate(0 0)"><rect class="a" width="0.703" height="11.6"/></g></g><g transform="translate(13.358 53.309)"><g transform="translate(0 0)"><rect class="a" width="1.055" height="9.842"/></g></g><g transform="translate(15.467 53.309)"><g transform="translate(0 0)"><rect class="a" width="0.703" height="9.842"/></g></g><g transform="translate(16.873 53.309)"><g transform="translate(0 0)"><rect class="a" width="1.055" height="9.842"/></g></g><g transform="translate(18.63 53.309)"><g transform="translate(0 0)"><rect class="a" width="0.703" height="11.6"/></g></g><g transform="translate(0 65.964)"><path class="a" d="M.7,411.006V409.6H0v1.758a.332.332,0,0,0,.352.351H2.109v-.7Z" transform="translate(0 -409.6)"/></g><g transform="translate(18.982 65.964)"><path class="a" d="M462.206,409.6v1.406H460.8v.7h1.758a.332.332,0,0,0,.351-.351V409.6Z" transform="translate(-460.8 -409.6)"/></g><g transform="translate(18.982 51.2)"><g transform="translate(0 0)"><path class="a" d="M462.558,51.2H460.8v.7h1.406v1.406h.7V51.551A.332.332,0,0,0,462.558,51.2Z" transform="translate(-460.8 -51.2)"/></g></g><g transform="translate(3.164 63.855)"><g transform="translate(0 0)"><rect class="a" width="0.703" height="1.055"/></g></g><g transform="translate(4.57 63.855)"><g transform="translate(0 0)"><rect class="a" width="0.703" height="1.055"/></g></g><g transform="translate(5.976 63.855)"><g transform="translate(0 0)"><rect class="a" width="0.703" height="1.055"/></g></g><g transform="translate(7.382 63.855)"><g transform="translate(0 0)"><rect class="a" width="0.703" height="1.055"/></g></g><g transform="translate(8.788 63.855)"><g transform="translate(0 0)"><rect class="a" width="0.703" height="1.055"/></g></g><g transform="translate(11.6 63.855)"><g transform="translate(0 0)"><rect class="a" width="0.703" height="1.055"/></g></g><g transform="translate(13.006 63.855)"><g transform="translate(0 0)"><rect class="a" width="0.703" height="1.055"/></g></g><g transform="translate(14.412 63.855)"><g transform="translate(0 0)"><rect class="a" width="0.703" height="1.055"/></g></g><g transform="translate(15.818 63.855)"><g transform="translate(0 0)"><rect class="a" width="0.703" height="1.055"/></g></g><g transform="translate(17.224 63.855)"><g transform="translate(0 0)"><rect class="a" width="0.703" height="1.055"/></g></g><g transform="translate(11.952 53.309)"><g transform="translate(0 0)"><rect class="a" width="0.703" height="9.842"/></g></g></g></svg>