<svg id="items" xmlns="http://www.w3.org/2000/svg" width="19.511" height="17.57" viewBox="0 0 19.511 17.57">
  <path id="Path_145" data-name="Path 145" d="M34.7,21.463H18.351a1.585,1.585,0,0,0-1.583,1.583V37.572a.361.361,0,0,0,.361.361H18.42v.738a.361.361,0,0,0,.361.361h1.1a.361.361,0,0,0,.361-.361v-.738H32.8v.738a.361.361,0,0,0,.361.361h1.1a.361.361,0,0,0,.361-.361v-.738h1.291a.361.361,0,0,0,.361-.361V23.046A1.585,1.585,0,0,0,34.7,21.463Zm-16.344.723H34.7a.861.861,0,0,1,.86.86v1.773H34.543v-.527a1.359,1.359,0,0,0-1.357-1.357H19.86A1.359,1.359,0,0,0,18.5,24.292v.527H17.49V23.046a.861.861,0,0,1,.861-.86Zm.874,2.633v-.527a.635.635,0,0,1,.634-.634H33.186a.635.635,0,0,1,.634.634v.527Zm-.083,8.433H33.9v2.306H19.143Zm0-.723V30.223H33.9v2.306ZM33.9,29.5H19.143V27.194H24.6a1.941,1.941,0,0,0,3.842,0H33.9Zm-6.158-2.6a1.222,1.222,0,0,1-2.444,0v-1.36h2.444ZM19.52,38.31h-.377v-.377h.377Zm14.383,0h-.377v-.377H33.9Zm1.652-1.1H17.491V25.542h7.087v.929h-5.8a.361.361,0,0,0-.361.361V35.92a.361.361,0,0,0,.361.361H34.264a.361.361,0,0,0,.361-.361V26.833a.361.361,0,0,0-.361-.361h-5.8v-.929h7.087Z" transform="translate(-16.768 -21.463)" fill="#fff"/>
  <path id="Path_146" data-name="Path 146" d="M62.571,45.088a.321.321,0,0,0,.321-.321v-.733a.321.321,0,0,0-.642,0v.733A.321.321,0,0,0,62.571,45.088Z" transform="translate(-52.816 -39.068)" fill="#fff"/>
</svg>
