<svg id="shopping-basket" xmlns="http://www.w3.org/2000/svg" width="26.13" height="21.78" viewBox="0 0 26.13 21.78">
  <g id="Group_495" data-name="Group 495">
    <path id="Path_150" data-name="Path 150" d="M25.586,51.38H20.973L15.147,42.9a.544.544,0,1,0-.9.617l5.4,7.859H6.479l5.4-7.859a.544.544,0,1,0-.9-.617L5.157,51.38H.544a.545.545,0,0,0,0,1.089h.691L4.563,62.931a2.171,2.171,0,0,0,2.075,1.518H19.492a2.17,2.17,0,0,0,2.075-1.518L24.895,52.47h.691a.545.545,0,0,0,0-1.089ZM20.529,62.6a1.085,1.085,0,0,1-1.037.759H6.638A1.085,1.085,0,0,1,5.6,62.6L2.378,52.469H23.752Z" transform="translate(0 -42.669)" fill="#fff"/>
  </g>
</svg>
