<svg xmlns="http://www.w3.org/2000/svg" width="19.369" height="17.745" viewBox="0 0 19.369 17.745">
  <g id="filter_3_" data-name="filter (3)" transform="translate(-64.267 -80.334)">
    <path id="Path_152" data-name="Path 152" d="M82.878,81.957H71.339a2.38,2.38,0,0,0-4.513,0h-1.8a.758.758,0,1,0,0,1.515h1.8a2.38,2.38,0,0,0,4.513,0H82.878a.758.758,0,1,0,0-1.515Zm-13.8,1.623a.865.865,0,1,1,.865-.865A.866.866,0,0,1,69.082,83.58Z" transform="translate(0)" fill="#fafafb"/>
    <path id="Path_153" data-name="Path 153" d="M82.878,210.49h-1.8a2.38,2.38,0,0,0-4.513,0H65.025a.758.758,0,0,0,0,1.515H76.564a2.38,2.38,0,0,0,4.513,0h1.8a.758.758,0,1,0,0-1.515Zm-4.058,1.623a.865.865,0,1,1,.865-.865A.866.866,0,0,1,78.82,212.113Z" transform="translate(0 -122.041)" fill="#fafafb"/>
    <path id="Path_154" data-name="Path 154" d="M82.878,339.023H74.585a2.38,2.38,0,0,0-4.513,0H65.025a.758.758,0,0,0,0,1.515h5.047a2.38,2.38,0,0,0,4.513,0h8.293a.758.758,0,1,0,0-1.515Zm-10.55,1.623a.865.865,0,1,1,.865-.865A.866.866,0,0,1,72.328,340.646Z" transform="translate(0 -244.082)" fill="#fafafb"/>
  </g>
</svg>
