<svg height="512" viewBox="0 0 128 128" width="512" xmlns="http://www.w3.org/2000/svg"><g><path fill="#707070" d="m103.568 21.463h-79.136a7.673 7.673 0 0 0 -7.664 7.664v70.336a1.749 1.749 0 0 0 1.75 1.75h6.25v3.574a1.749 1.749 0 0 0 1.75 1.75h5.324a1.749 1.749 0 0 0 1.75-1.75v-3.574h60.816v3.574a1.749 1.749 0 0 0 1.75 1.75h5.324a1.749 1.749 0 0 0 1.75-1.75v-3.574h6.25a1.749 1.749 0 0 0 1.75-1.75v-70.336a7.673 7.673 0 0 0 -7.664-7.664zm-79.136 3.5h79.136a4.169 4.169 0 0 1 4.164 4.164v8.586h-4.9v-2.553a6.579 6.579 0 0 0 -6.572-6.572h-64.523a6.579 6.579 0 0 0 -6.572 6.572v2.553h-4.9v-8.586a4.169 4.169 0 0 1 4.167-4.164zm4.233 12.75v-2.553a3.075 3.075 0 0 1 3.072-3.072h64.526a3.075 3.075 0 0 1 3.072 3.072v2.553zm-.4 40.833h71.467v11.167h-71.464zm0-3.5v-11.167h71.467v11.167zm71.467-14.667h-71.464v-11.166h26.432a9.4 9.4 0 0 0 18.6 0h26.432zm-29.815-12.579a5.917 5.917 0 0 1 -11.834 0v-6.587h11.834zm-39.825 55.237h-1.824v-1.824h1.824zm69.64 0h-1.824v-1.824h1.824zm8-5.324h-87.464v-56.5h34.315v4.5h-28.065a1.749 1.749 0 0 0 -1.75 1.75v44a1.749 1.749 0 0 0 1.75 1.75h74.964a1.749 1.749 0 0 0 1.75-1.75v-44a1.749 1.749 0 0 0 -1.75-1.75h-28.065v-4.5h34.315z"/><path d="m64 51.213a1.75 1.75 0 0 0 1.75-1.75v-4a1.75 1.75 0 1 0 -3.5 0v4a1.75 1.75 0 0 0 1.75 1.75z"/></g></svg>