<?xml version="1.0" encoding="UTF-8"?>
<svg width="268px" height="104px" viewBox="0 0 268 104" version="1.1" xmlns="http://www.w3.org/2000/svg" xmlns:xlink="http://www.w3.org/1999/xlink">
    <!-- Generator: Sketch 49.2 (51160) - http://www.bohemiancoding.com/sketch -->
    <title>logo-svg</title>
    <desc>Created with Sketch.</desc>
    <defs></defs>
    <g id="Page-1" stroke="none" stroke-width="1" fill="none" fill-rule="evenodd">
        <g id="mac-13.3" transform="translate(-247.000000, -201.000000)">
            <g id="home">
                <g id="logo-svg" transform="translate(242.000000, 203.000000)">
                    <polygon id="Polygon" stroke="#0F58A4" stroke-width="2" fill="#0F58A4" points="50 0 93.3012702 25 93.3012702 75 50 100 6.69872981 75 6.69872981 25"></polygon>
                    <path d="M69.47,36.58 C71.0100077,38.3000086 71.78,40.6399852 71.78,43.6 L71.78,66.76 L63.26,66.76 L63.26,45.04 C63.26,41.9199844 62.2200104,40.36 60.14,40.36 C59.0199944,40.36 58.0400042,40.7199964 57.2,41.44 C56.3599958,42.1600036 55.5000044,43.2799924 54.62,44.8 L54.62,66.76 L46.1,66.76 L46.1,45.04 C46.1,41.9199844 45.0600104,40.36 42.98,40.36 C41.8599944,40.36 40.8800042,40.7299963 40.04,41.47 C39.1999958,42.2100037 38.3600042,43.3199926 37.52,44.8 L37.52,66.76 L29,66.76 L29,34.96 L36.38,34.96 L37.04,38.92 C38.240006,37.319992 39.5899925,36.1000042 41.09,35.26 C42.5900075,34.4199958 44.3199902,34 46.28,34 C48.080009,34 49.6399934,34.4499955 50.96,35.35 C52.2800066,36.2500045 53.239997,37.5199918 53.84,39.16 C55.1600066,37.4399914 56.5899923,36.1500043 58.13,35.29 C59.6700077,34.4299957 61.4199902,34 63.38,34 C65.9000126,34 67.9299923,34.8599914 69.47,36.58 Z" id="m" fill="#FFFFFF"></path>
                    <g id="Group" transform="translate(104.000000, 23.000000)" fill="#585A5B">
                        <path d="M77.05,52.165 L76.945,52.96 L73.93,52.96 L73.93,62.44 L73.045,62.44 L73.045,52.96 L70,52.96 L70,52.165 L77.05,52.165 Z M84.085,52.165 L83.98,52.915 L79.765,52.915 L79.765,56.74 L83.41,56.74 L83.41,57.49 L79.765,57.49 L79.765,61.69 L84.19,61.69 L84.19,62.44 L78.865,62.44 L78.865,52.165 L84.085,52.165 Z M91.3075,52.2325 C91.702502,52.3875008 92.099998,52.6249984 92.5,52.945 L92.02,53.545 C91.6699983,53.2649986 91.3350016,53.0650006 91.015,52.945 C90.6949984,52.8249994 90.3300021,52.765 89.92,52.765 C88.9499951,52.765 88.162503,53.1349963 87.5575,53.875 C86.952497,54.6150037 86.65,55.7549923 86.65,57.295 C86.65,58.295005 86.7899986,59.1349966 87.07,59.815 C87.3500014,60.4950034 87.7324976,60.9974984 88.2175,61.3225 C88.7025024,61.6475016 89.2549969,61.81 89.875,61.81 C90.3650025,61.81 90.7799983,61.7375007 91.12,61.5925 C91.4600017,61.4474993 91.8049982,61.2350014 92.155,60.955 L92.62,61.54 C91.8699962,62.2500036 90.9450055,62.605 89.845,62.605 C89.044996,62.605 88.3325031,62.400002 87.7075,61.99 C87.0824969,61.5799979 86.5925018,60.977504 86.2375,60.1825 C85.8824982,59.387496 85.705,58.4250057 85.705,57.295 C85.705,56.1649944 85.8899981,55.202504 86.26,54.4075 C86.6300018,53.612496 87.1274969,53.012502 87.7525,52.6075 C88.3775031,52.202498 89.0799961,52 89.86,52 C90.4300028,52 90.912498,52.0774992 91.3075,52.2325 Z M100.45,62.44 L100.45,57.415 L95.53,57.415 L95.53,62.44 L94.63,62.44 L94.63,52.165 L95.53,52.165 L95.53,56.65 L100.45,56.65 L100.45,52.165 L101.35,52.165 L101.35,62.44 L100.45,62.44 Z M111.445,62.44 L110.26,62.44 L105.415,53.155 C105.495,54.4050062 105.535,55.5849944 105.535,56.695 L105.535,62.44 L104.68,62.44 L104.68,52.165 L105.835,52.165 L110.71,61.45 C110.63,60.2899942 110.59,59.2750043 110.59,58.405 L110.59,52.165 L111.445,52.165 L111.445,62.44 Z M120.49,52.6075 C121.120003,53.012502 121.609998,53.614996 121.96,54.415 C122.310002,55.215004 122.485,56.1799944 122.485,57.31 C122.485,58.4200055 122.312502,59.372496 121.9675,60.1675 C121.622498,60.962504 121.135003,61.5674979 120.505,61.9825 C119.874997,62.3975021 119.135004,62.605 118.285,62.605 C117.454996,62.605 116.725003,62.400002 116.095,61.99 C115.464997,61.5799979 114.975002,60.9800039 114.625,60.19 C114.274998,59.399996 114.1,58.4450056 114.1,57.325 C114.1,56.2149944 114.274998,55.260004 114.625,54.46 C114.975002,53.659996 115.467497,53.0500021 116.1025,52.63 C116.737503,52.2099979 117.464996,52 118.285,52 C119.125004,52 119.859997,52.202498 120.49,52.6075 Z M115.915,53.9125 C115.334997,54.6775038 115.045,55.8149924 115.045,57.325 C115.045,58.8150074 115.337497,59.9399962 115.9225,60.7 C116.507503,61.4600038 117.294995,61.84 118.285,61.84 C119.315005,61.84 120.114997,61.4625038 120.685,60.7075 C121.255003,59.9524962 121.54,58.8200075 121.54,57.31 C121.54,55.7899924 121.252503,54.6525038 120.6775,53.8975 C120.102497,53.1424962 119.305005,52.765 118.285,52.765 C117.284995,52.765 116.495003,53.1474962 115.915,53.9125 Z M126.04,52.165 L126.04,61.63 L130.33,61.63 L130.21,62.44 L125.14,62.44 L125.14,52.165 L126.04,52.165 Z M137.29,52.6075 C137.920003,53.012502 138.409998,53.614996 138.76,54.415 C139.110002,55.215004 139.285,56.1799944 139.285,57.31 C139.285,58.4200055 139.112502,59.372496 138.7675,60.1675 C138.422498,60.962504 137.935003,61.5674979 137.305,61.9825 C136.674997,62.3975021 135.935004,62.605 135.085,62.605 C134.254996,62.605 133.525003,62.400002 132.895,61.99 C132.264997,61.5799979 131.775002,60.9800039 131.425,60.19 C131.074998,59.399996 130.9,58.4450056 130.9,57.325 C130.9,56.2149944 131.074998,55.260004 131.425,54.46 C131.775002,53.659996 132.267497,53.0500021 132.9025,52.63 C133.537503,52.2099979 134.264996,52 135.085,52 C135.925004,52 136.659997,52.202498 137.29,52.6075 Z M132.715,53.9125 C132.134997,54.6775038 131.845,55.8149924 131.845,57.325 C131.845,58.8150074 132.137497,59.9399962 132.7225,60.7 C133.307503,61.4600038 134.094995,61.84 135.085,61.84 C136.115005,61.84 136.914997,61.4625038 137.485,60.7075 C138.055003,59.9524962 138.34,58.8200075 138.34,57.31 C138.34,55.7899924 138.052503,54.6525038 137.4775,53.8975 C136.902497,53.1424962 136.105005,52.765 135.085,52.765 C134.084995,52.765 133.295003,53.1474962 132.715,53.9125 Z M147.07,52.2475 C147.500002,52.4125008 147.934998,52.6699982 148.375,53.02 L147.835,53.59 C147.464998,53.2999985 147.105002,53.0900006 146.755,52.96 C146.404998,52.8299993 146.005002,52.765 145.555,52.765 C144.964997,52.765 144.417503,52.9199984 143.9125,53.23 C143.407497,53.5400015 142.997502,54.0324966 142.6825,54.7075 C142.367498,55.3825034 142.21,56.2349948 142.21,57.265 C142.21,58.7950077 142.499997,59.9399962 143.08,60.7 C143.660003,61.4600038 144.469995,61.84 145.51,61.84 C146.310004,61.84 147.029997,61.6600018 147.67,61.3 L147.67,57.655 L145.66,57.655 L145.555,56.905 L148.555,56.905 L148.555,61.765 C147.574995,62.3250028 146.560005,62.605 145.51,62.605 C144.199993,62.605 143.165004,62.1500045 142.405,61.24 C141.644996,60.3299954 141.265,59.0050087 141.265,57.265 C141.265,56.1349943 141.462498,55.172504 141.8575,54.3775 C142.252502,53.582496 142.777497,52.987502 143.4325,52.5925 C144.087503,52.197498 144.794996,52 145.555,52 C146.135003,52 146.639998,52.0824992 147.07,52.2475 Z M152.11,52.165 L152.11,62.44 L151.21,62.44 L151.21,52.165 L152.11,52.165 Z M160.66,52.165 L160.555,52.915 L156.34,52.915 L156.34,56.74 L159.985,56.74 L159.985,57.49 L156.34,57.49 L156.34,61.69 L160.765,61.69 L160.765,62.44 L155.44,62.44 L155.44,52.165 L160.66,52.165 Z M166.9375,52.2775 C167.392502,52.4625009 167.834998,52.7499981 168.265,53.14 L167.74,53.71 C167.349998,53.3799983 166.970002,53.1400007 166.6,52.99 C166.229998,52.8399992 165.810002,52.765 165.34,52.765 C164.699997,52.765 164.185002,52.9224984 163.795,53.2375 C163.404998,53.5525016 163.21,53.9749973 163.21,54.505 C163.21,54.8650018 163.282499,55.1624988 163.4275,55.3975 C163.572501,55.6325012 163.814998,55.8424991 164.155,56.0275 C164.495002,56.2125009 164.979997,56.399999 165.61,56.59 C166.290003,56.800001 166.839998,57.0249988 167.26,57.265 C167.680002,57.5050012 168.004999,57.8149981 168.235,58.195 C168.465001,58.5750019 168.58,59.0549971 168.58,59.635 C168.58,60.2150029 168.440001,60.7299977 168.16,61.18 C167.879999,61.6300022 167.482503,61.9799988 166.9675,62.23 C166.452497,62.4800013 165.855003,62.605 165.175,62.605 C163.894994,62.605 162.800005,62.1750043 161.89,61.315 L162.4,60.745 C162.820002,61.1050018 163.244998,61.3774991 163.675,61.5625 C164.105002,61.7475009 164.599997,61.84 165.16,61.84 C165.900004,61.84 166.502498,61.6450019 166.9675,61.255 C167.432502,60.864998 167.665,60.3350033 167.665,59.665 C167.665,59.2449979 167.587501,58.9000013 167.4325,58.63 C167.277499,58.3599986 167.027502,58.127501 166.6825,57.9325 C166.337498,57.737499 165.850003,57.540001 165.22,57.34 C164.169995,57.0199984 163.420002,56.6500021 162.97,56.23 C162.519998,55.8099979 162.295,55.2400036 162.295,54.52 C162.295,54.0399976 162.422499,53.6075019 162.6775,53.2225 C162.932501,52.8374981 163.287498,52.5375011 163.7425,52.3225 C164.197502,52.1074989 164.719997,52 165.31,52 C165.940003,52 166.482498,52.0924991 166.9375,52.2775 Z" id="TECHNOLOGIES"></path>
                        <path d="M38.0878733,14.34295 C39.5372337,15.9617163 40.2619031,18.1639582 40.2619031,20.949742 L40.2619031,42.7465086 L32.2434035,42.7465086 L32.2434035,22.3049814 C32.2434035,19.3686147 31.2646293,17.9004534 29.3070515,17.9004534 C28.2529711,17.9004534 27.3306647,18.2392599 26.5401044,18.9168829 C25.7495442,19.594506 24.9401732,20.6485705 24.1119672,22.0791081 L24.1119672,42.7465086 L16.0934676,42.7465086 L16.0934676,22.3049814 C16.0934676,19.3686147 15.1146934,17.9004534 13.1571156,17.9004534 C12.1030353,17.9004534 11.1807288,18.2486712 10.3901685,18.9451171 C9.59960828,19.641563 8.80905989,20.6862163 8.01849963,22.0791081 L8.01849963,42.7465086 L0,42.7465086 L0,12.8183058 L6.9456018,12.8183058 L7.56675318,16.545214 C8.69612497,15.039385 9.96664918,13.8912075 11.3783639,13.1006473 C12.7900787,12.310087 14.4182319,11.9148128 16.2628725,11.9148128 C17.9569302,11.9148128 19.4250915,12.3383209 20.6674005,13.1853497 C21.9097094,14.0323786 22.8131933,15.2276125 23.3778792,16.7710873 C24.6201882,15.152321 25.9660027,13.9382646 27.4153632,13.1288814 C28.8647237,12.3194983 30.5116995,11.9148128 32.3563401,11.9148128 C34.7280208,11.9148128 36.6385128,12.7241838 38.0878733,14.34295 Z M70.9806622,16.1217017 C73.5029259,18.9263083 74.7640388,22.8131713 74.7640388,27.7824072 C74.7640388,30.9446482 74.1899501,33.7209789 73.0417555,36.1114825 C71.8935608,38.5019861 70.2371737,40.3560103 68.0725444,41.6736108 C65.9079152,42.9912112 63.3574554,43.6500015 60.4210888,43.6500015 C55.9412473,43.6500015 52.430836,42.2477193 49.8897495,39.4431126 C47.3486629,36.638506 46.0781387,32.7516431 46.0781387,27.7824072 C46.0781387,24.6201662 46.6522275,21.8438355 47.8004221,19.4533319 C48.9486168,17.0628282 50.6050039,15.208804 52.7696332,13.8912036 C54.9342624,12.5736032 57.5035447,11.9148128 60.4775571,11.9148128 C64.9573985,11.9148128 68.4583986,13.3170951 70.9806622,16.1217017 Z M55.9318584,20.3003565 C54.9342466,21.9002998 54.4354482,24.3942918 54.4354482,27.7824072 C54.4354482,31.1705226 54.9342466,33.6645145 55.9318584,35.2644579 C56.9294701,36.8644013 58.4258653,37.664361 60.4210888,37.664361 C62.4163123,37.664361 63.9127075,36.8644013 64.9103192,35.2644579 C65.907931,33.6645145 66.4067294,31.1705226 66.4067294,27.7824072 C66.4067294,24.3942918 65.9173423,21.9002998 64.9385534,20.3003565 C63.9597645,18.7004131 62.4727806,17.9004534 60.4775571,17.9004534 C58.4446879,17.9004534 56.9294701,18.7004131 55.9318584,20.3003565 Z M106.781569,0.903492916 L106.781569,42.7465086 L99.7230307,42.7465086 L99.2712842,39.0760686 C97.1631235,42.1253725 94.3020912,43.6500015 90.6881015,43.6500015 C86.9988203,43.6500015 84.1848445,42.2288967 82.2460896,39.3866443 C80.3073346,36.544392 79.3379717,32.6763516 79.3379717,27.7824072 C79.3379717,24.6954576 79.8367701,21.9567721 80.8343819,19.5662685 C81.8319936,17.1757648 83.2530985,15.302918 85.0977391,13.9476719 C86.9423797,12.5924257 89.0693313,11.9148128 91.4786578,11.9148128 C94.2644415,11.9148128 96.6925545,12.9124096 98.7630694,14.9076331 L98.7630694,0 L106.781569,0.903492916 Z M96.1655273,36.7891022 C97.0690247,36.2055934 97.9348634,35.2926983 98.7630694,34.0503893 L98.7630694,20.6674005 C97.9725092,19.7262573 97.1725495,19.0204105 96.3631664,18.5498389 C95.5537833,18.0792674 94.6220655,17.8439851 93.5679852,17.8439851 C91.7233446,17.8439851 90.2834171,18.6533561 89.2481597,20.2721223 C88.2129022,21.8908885 87.6952812,24.3942918 87.6952812,27.7824072 C87.6952812,31.3587512 88.1564344,33.8997996 89.0787547,35.4056287 C90.001075,36.9114577 91.328067,37.664361 93.0597704,37.664361 C94.2267879,37.664361 95.2620299,37.372611 96.1655273,36.7891022 Z M139.194377,42.7465086 L132.248776,42.7465086 L131.853497,38.7372588 C130.799417,40.3936708 129.519482,41.6265498 128.013653,42.4359329 C126.507824,43.245316 124.757324,43.6500015 122.7621,43.6500015 C120.051608,43.6500015 117.981124,42.8312193 116.550586,41.1936302 C115.120049,39.5560411 114.404791,37.2690975 114.404791,34.3327308 L114.404791,12.8183058 L122.42329,12.8183058 L122.42329,33.3163013 C122.42329,34.8974218 122.686806,36.0173654 123.213846,36.6761656 C123.740887,37.3349658 124.56908,37.664361 125.698452,37.664361 C127.844258,37.664361 129.670049,36.3656029 131.175878,33.7680478 L131.175878,12.8183058 L139.194377,12.8183058 L139.194377,42.7465086 Z M167.880278,15.5287845 L164.830989,20.1027174 C162.308725,18.5215969 159.824145,17.7310485 157.377172,17.7310485 C156.059572,17.7310485 155.043153,17.975742 154.327884,18.4651365 C153.612615,18.9545309 153.254986,19.6133213 153.254986,20.4415272 C153.254986,21.0438589 153.414978,21.5520685 153.734967,21.9661715 C154.054955,22.3802745 154.657278,22.7755487 155.541952,23.152006 C156.426627,23.5284632 157.753619,23.9802052 159.522968,24.5072454 C162.685209,25.3730971 165.038032,26.5306858 166.581506,27.9800463 C168.124981,29.4294067 168.896707,31.415189 168.896707,33.9374527 C168.896707,35.9326762 168.322618,37.6643536 167.174424,39.1325369 C166.026229,40.6007203 164.473366,41.7206638 162.515788,42.4924012 C160.558211,43.2641386 158.374791,43.6500015 155.965465,43.6500015 C153.443201,43.6500015 151.146846,43.2641386 149.076331,42.4924012 C147.005816,41.7206638 145.236494,40.657188 143.76831,39.3019419 L147.721092,34.8974139 C150.243356,36.8549917 152.916162,37.8337659 155.739591,37.8337659 C157.245421,37.8337659 158.440654,37.5420159 159.325329,36.9585071 C160.210004,36.3749984 160.652334,35.5750387 160.652334,34.5586041 C160.652334,33.7680438 160.482931,33.1468986 160.144119,32.6951499 C159.805308,32.2434012 159.184163,31.8198931 158.280665,31.424613 C157.377168,31.0293329 155.965474,30.5681796 154.045542,30.0411395 C151.033884,29.2129335 148.803408,28.0365222 147.354048,26.5118703 C145.904687,24.9872183 145.180018,23.095549 145.180018,20.8368054 C145.180018,19.1427477 145.669405,17.6181186 146.648194,16.2628725 C147.626983,14.9076263 149.010443,13.8441505 150.798615,13.0724131 C152.586787,12.3006757 154.666682,11.9148128 157.038363,11.9148128 C161.254684,11.9148128 164.868619,13.119458 167.880278,15.5287845 Z" id="modus"></path>
                    </g>
                </g>
            </g>
        </g>
    </g>
</svg>