<?xml version="1.0" encoding="utf-8"?>
<!-- Generator: Adobe Illustrator 16.0.0, SVG Export Plug-In . SVG Version: 6.00 Build 0)  -->
<!DOCTYPE svg PUBLIC "-//W3C//DTD SVG 1.1//EN" "http://www.w3.org/Graphics/SVG/1.1/DTD/svg11.dtd">
<svg version="1.1" id="Layer_1" xmlns="http://www.w3.org/2000/svg" xmlns:xlink="http://www.w3.org/1999/xlink" x="0px" y="0px"
	 width="268px" height="104px" viewBox="0 0 268 104" enable-background="new 0 0 268 104" xml:space="preserve">
<title>logo-svg</title>
<desc>Created with Sketch.</desc>
<polygon id="Polygon" fill="#0F58A4" stroke="#0F58A4" stroke-width="2" points="45,2 88.301,27 88.301,77 45,102 1.699,77 
	1.699,27 "/>
<path id="m" fill="#FFFFFF" d="M64.47,38.58c1.54,1.72,2.31,4.06,2.31,7.02v23.16h-8.52V47.04c0-3.12-1.04-4.68-3.12-4.68
	c-1.12,0-2.1,0.36-2.94,1.08c-0.84,0.72-1.7,1.84-2.58,3.36v21.96H41.1V47.04c0-3.12-1.04-4.68-3.12-4.68
	c-1.12,0-2.1,0.37-2.94,1.11c-0.84,0.74-1.68,1.85-2.52,3.33v21.96H24v-31.8h7.38l0.66,3.96c1.2-1.6,2.55-2.82,4.05-3.66
	c1.5-0.84,3.23-1.26,5.19-1.26c1.8,0,3.36,0.45,4.68,1.35s2.28,2.17,2.88,3.81c1.32-1.72,2.75-3.01,4.29-3.87S56.42,36,58.38,36
	C60.9,36,62.93,36.86,64.47,38.58z"/>
<path id="TECHNOLOGIES" fill="#585A5B" d="M176.05,77.165l-0.104,0.795h-3.016v9.479h-0.885V77.96H169v-0.795H176.05z
	 M183.085,77.165l-0.104,0.75h-4.215v3.825h3.645v0.75h-3.645v4.199h4.424v0.75h-5.324V77.165H183.085z M190.308,77.232
	c0.396,0.155,0.792,0.393,1.192,0.713l-0.48,0.6c-0.35-0.279-0.685-0.48-1.004-0.6c-0.32-0.12-0.686-0.18-1.096-0.18
	c-0.97,0-1.758,0.369-2.362,1.109s-0.907,1.88-0.907,3.42c0,1,0.14,1.84,0.42,2.52c0.279,0.681,0.662,1.184,1.146,1.508
	c0.486,0.325,1.038,0.488,1.658,0.488c0.49,0,0.904-0.073,1.245-0.219c0.34-0.145,0.685-0.357,1.034-0.637l0.466,0.585
	c-0.75,0.71-1.675,1.065-2.774,1.065c-0.801,0-1.514-0.205-2.139-0.615s-1.115-1.013-1.47-1.808s-0.532-1.758-0.532-2.888
	s0.186-2.092,0.555-2.887c0.37-0.796,0.867-1.396,1.492-1.801c0.625-0.404,1.328-0.607,2.107-0.607
	C189.43,77,189.912,77.078,190.308,77.232z M199.45,87.439v-5.024h-4.921v5.024h-0.899V77.165h0.899v4.485h4.921v-4.485h0.899
	v10.274H199.45z M210.445,87.439h-1.186l-4.845-9.285c0.08,1.25,0.12,2.431,0.12,3.541v5.744h-0.855V77.165h1.155l4.875,9.285
	c-0.08-1.16-0.12-2.175-0.12-3.046v-6.239h0.855V87.439z M219.49,77.607c0.63,0.405,1.119,1.008,1.47,1.808s0.524,1.765,0.524,2.896
	c0,1.109-0.172,2.063-0.518,2.857c-0.344,0.795-0.832,1.399-1.462,1.814s-1.37,0.623-2.22,0.623c-0.83,0-1.561-0.205-2.189-0.615
	c-0.631-0.41-1.121-1.01-1.471-1.801c-0.35-0.789-0.525-1.744-0.525-2.864c0-1.11,0.176-2.065,0.525-2.865s0.842-1.41,1.478-1.83
	c0.635-0.42,1.362-0.63,2.183-0.63C218.125,77,218.859,77.203,219.49,77.607z M214.915,78.912c-0.58,0.766-0.87,1.902-0.87,3.413
	c0,1.489,0.293,2.614,0.877,3.375c0.586,0.76,1.373,1.14,2.363,1.14c1.029,0,1.83-0.377,2.4-1.133
	c0.569-0.754,0.854-1.887,0.854-3.396c0-1.521-0.288-2.658-0.862-3.413c-0.575-0.755-1.373-1.132-2.393-1.132
	C216.285,77.766,215.495,78.147,214.915,78.912z M225.04,77.165v9.465h4.29l-0.12,0.81h-5.069V77.165H225.04z M236.29,77.607
	c0.63,0.405,1.12,1.008,1.47,1.808s0.525,1.765,0.525,2.896c0,1.109-0.173,2.063-0.518,2.857c-0.346,0.795-0.832,1.399-1.463,1.814
	c-0.63,0.415-1.369,0.623-2.22,0.623c-0.83,0-1.56-0.205-2.19-0.615c-0.629-0.41-1.119-1.01-1.47-1.801
	c-0.35-0.789-0.524-1.744-0.524-2.864c0-1.11,0.175-2.065,0.524-2.865c0.351-0.8,0.843-1.41,1.478-1.83s1.363-0.63,2.183-0.63
	C234.925,77,235.66,77.203,236.29,77.607z M231.715,78.912c-0.58,0.766-0.869,1.902-0.869,3.413c0,1.489,0.292,2.614,0.877,3.375
	c0.585,0.76,1.373,1.14,2.362,1.14c1.03,0,1.83-0.377,2.399-1.133c0.57-0.754,0.855-1.887,0.855-3.396
	c0-1.521-0.287-2.658-0.862-3.413s-1.372-1.132-2.393-1.132C233.085,77.766,232.295,78.147,231.715,78.912z M246.07,77.248
	c0.43,0.164,0.865,0.422,1.305,0.771l-0.54,0.57c-0.37-0.29-0.729-0.5-1.08-0.63s-0.75-0.194-1.2-0.194
	c-0.59,0-1.137,0.154-1.643,0.465c-0.504,0.31-0.914,0.803-1.229,1.477c-0.315,0.676-0.473,1.527-0.473,2.559
	c0,1.529,0.29,2.674,0.87,3.435c0.58,0.76,1.391,1.14,2.43,1.14c0.801,0,1.52-0.18,2.16-0.54v-3.646h-2.01l-0.105-0.75h3v4.861
	c-0.979,0.56-1.994,0.84-3.045,0.84c-1.31,0-2.345-0.455-3.105-1.365c-0.76-0.91-1.139-2.235-1.139-3.975
	c0-1.131,0.197-2.094,0.592-2.889s0.92-1.39,1.575-1.785c0.655-0.395,1.362-0.592,2.122-0.592
	C245.135,77,245.641,77.082,246.07,77.248z M251.109,77.165v10.274h-0.899V77.165H251.109z M259.66,77.165l-0.105,0.75h-4.215v3.825
	h3.645v0.75h-3.645v4.199h4.426v0.75h-5.326V77.165H259.66z M265.938,77.277c0.455,0.186,0.897,0.473,1.328,0.863l-0.525,0.569
	c-0.391-0.33-0.77-0.569-1.141-0.72c-0.369-0.15-0.789-0.225-1.26-0.225c-0.64,0-1.154,0.156-1.545,0.472s-0.585,0.737-0.585,1.268
	c0,0.36,0.073,0.657,0.218,0.893s0.387,0.444,0.727,0.63c0.341,0.186,0.826,0.373,1.455,0.563c0.681,0.21,1.23,0.436,1.65,0.676
	c0.42,0.239,0.745,0.549,0.975,0.93c0.23,0.38,0.346,0.859,0.346,1.439s-0.141,1.096-0.42,1.545c-0.28,0.45-0.678,0.801-1.193,1.051
	c-0.514,0.25-1.111,0.375-1.792,0.375c-1.28,0-2.375-0.431-3.284-1.291l0.51-0.569c0.42,0.36,0.845,0.632,1.274,0.817
	c0.431,0.186,0.925,0.277,1.485,0.277c0.74,0,1.342-0.195,1.807-0.585c0.466-0.39,0.698-0.92,0.698-1.59
	c0-0.42-0.077-0.765-0.232-1.035s-0.405-0.503-0.75-0.697c-0.345-0.195-0.833-0.393-1.462-0.593c-1.051-0.32-1.801-0.689-2.25-1.109
	c-0.451-0.42-0.676-0.99-0.676-1.711c0-0.479,0.127-0.912,0.383-1.297c0.255-0.385,0.609-0.686,1.064-0.9S263.721,77,264.311,77
	C264.939,77,265.482,77.092,265.938,77.277z"/>
<path id="modus" fill="#585A5B" d="M137.088,39.343c1.449,1.619,2.174,3.821,2.174,6.607v21.796h-8.019V47.305
	c0-2.937-0.979-4.405-2.936-4.405c-1.054,0-1.977,0.339-2.767,1.017s-1.6,1.731-2.428,3.162v20.667h-8.019V47.305
	c0-2.937-0.979-4.405-2.936-4.405c-1.054,0-1.977,0.348-2.767,1.045c-0.791,0.696-1.581,1.741-2.372,3.134v20.667H99V37.818h6.946
	l0.621,3.727c1.129-1.506,2.4-2.654,3.812-3.445s3.04-1.186,4.884-1.186c1.694,0,3.163,0.423,4.405,1.271
	c1.242,0.847,2.146,2.042,2.71,3.585c1.242-1.619,2.588-2.833,4.038-3.642c1.449-0.81,3.096-1.214,4.941-1.214
	C133.728,36.915,135.639,37.724,137.088,39.343z M169.98,41.122c2.522,2.805,3.783,6.691,3.783,11.661
	c0,3.163-0.574,5.938-1.722,8.329c-1.148,2.391-2.805,4.244-4.97,5.563c-2.164,1.317-4.715,1.977-7.651,1.977
	c-4.479,0-7.99-1.402-10.531-4.207s-3.812-6.691-3.812-11.661c0-3.162,0.574-5.938,1.723-8.329c1.148-2.39,2.805-4.244,4.969-5.562
	c2.164-1.317,4.734-1.976,7.708-1.976C163.957,36.915,167.459,38.317,169.98,41.122z M154.932,45.3
	c-0.998,1.6-1.496,4.094-1.496,7.482s0.498,5.882,1.496,7.482c0.998,1.6,2.494,2.399,4.489,2.399s3.491-0.8,4.489-2.399
	c0.998-1.601,1.496-4.095,1.496-7.482s-0.488-5.882-1.468-7.482c-0.979-1.6-2.466-2.4-4.461-2.4
	C157.445,42.9,155.93,43.7,154.932,45.3z M205.781,25.903v41.843h-7.059l-0.451-3.67c-2.108,3.049-4.969,4.574-8.584,4.574
	c-3.688,0-6.502-1.422-8.441-4.264s-2.908-6.711-2.908-11.604c0-3.087,0.499-5.825,1.496-8.216c0.998-2.391,2.419-4.264,4.264-5.619
	c1.845-1.355,3.972-2.033,6.381-2.033c2.786,0,5.214,0.998,7.285,2.993V25L205.781,25.903z M195.166,61.789
	c0.902-0.584,1.77-1.496,2.598-2.738V45.667c-0.791-0.941-1.592-1.647-2.4-2.118c-0.81-0.471-1.741-0.706-2.795-0.706
	c-1.846,0-3.285,0.81-4.32,2.428c-1.035,1.619-1.553,4.123-1.553,7.51c0,3.577,0.461,6.118,1.383,7.624
	c0.923,1.506,2.25,2.258,3.981,2.258C193.227,62.664,194.262,62.373,195.166,61.789z M238.194,67.746h-6.945l-0.396-4.009
	c-1.055,1.656-2.334,2.89-3.84,3.698c-1.506,0.81-3.256,1.215-5.252,1.215c-2.71,0-4.781-0.819-6.211-2.457
	c-1.431-1.637-2.146-3.924-2.146-6.861V37.818h8.02v20.498c0,1.581,0.264,2.701,0.79,3.359c0.526,0.659,1.354,0.988,2.484,0.988
	c2.146,0,3.972-1.299,5.478-3.896V37.818h8.019V67.746z M266.881,40.529l-3.05,4.574c-2.522-1.581-5.007-2.372-7.454-2.372
	c-1.317,0-2.334,0.245-3.049,0.734c-0.715,0.489-1.073,1.148-1.073,1.976c0,0.603,0.16,1.111,0.479,1.525
	c0.32,0.414,0.923,0.809,1.808,1.186s2.212,0.828,3.981,1.355c3.162,0.866,5.515,2.023,7.059,3.473
	c1.543,1.449,2.314,3.435,2.314,5.957c0,1.995-0.574,3.727-1.723,5.195c-1.147,1.468-2.701,2.588-4.658,3.359
	s-4.141,1.158-6.551,1.158c-2.521,0-4.818-0.387-6.889-1.158s-3.84-1.835-5.308-3.19l3.952-4.404
	c2.522,1.958,5.195,2.937,8.02,2.937c1.506,0,2.7-0.292,3.585-0.875c0.885-0.584,1.327-1.384,1.327-2.4
	c0-0.791-0.17-1.412-0.508-1.863c-0.34-0.452-0.961-0.875-1.863-1.271c-0.904-0.396-2.316-0.856-4.236-1.384
	c-3.012-0.828-5.242-2.004-6.691-3.529c-1.449-1.524-2.174-3.416-2.174-5.675c0-1.694,0.49-3.219,1.469-4.574
	c0.979-1.355,2.361-2.418,4.15-3.19c1.788-0.771,3.867-1.157,6.24-1.157C260.255,36.915,263.869,38.12,266.881,40.529z"/>
</svg>
