<?xml version="1.0" encoding="UTF-8"?>
<svg width="213px" height="80px" viewBox="0 0 213 80" version="1.1" xmlns="http://www.w3.org/2000/svg" xmlns:xlink="http://www.w3.org/1999/xlink">
    <!-- Generator: Sketch 49.2 (51160) - http://www.bohemiancoding.com/sketch -->
    <title>logo-svg</title>
    <desc>Created with Sketch.</desc>
    <defs>
        <polygon id="path-1" points="39.9267399 0 74.504311 20 74.504311 60 39.9267399 80 5.34916886 60 5.34916886 20"></polygon>
    </defs>
    <g id="header-copy" stroke="none" stroke-width="1" fill="none" fill-rule="evenodd">
        <g id="Desktop-HD" transform="translate(-100.000000, -20.000000)">
            <g id="logo-svg" transform="translate(95.000000, 20.000000)">
                <g>
                    <g id="Rectangle-3">
                        <mask id="mask-2" fill="white">
                            <use xlink:href="#path-1"></use>
                        </mask>
                        <path stroke="#FFFFFF" stroke-width="2" d="M39.9267399,1.15523058 L6.34916886,20.576821 L6.34916886,59.423179 L39.9267399,78.8447694 L73.504311,59.423179 L73.504311,20.576821 L39.9267399,1.15523058 Z"></path>
                    </g>
                    <path d="M55.4742125,29.264 C56.7039622,30.6400069 57.3188278,32.5119882 57.3188278,34.88 L57.3188278,53.408 L50.5153114,53.408 L50.5153114,36.032 C50.5153114,33.5359875 49.6848435,32.288 48.0238828,32.288 C47.1295193,32.288 46.3469631,32.5759971 45.6761905,33.152 C45.0054179,33.7280029 44.3186848,34.6239939 43.6159707,35.84 L43.6159707,53.408 L36.8124542,53.408 L36.8124542,36.032 C36.8124542,33.5359875 35.9819863,32.288 34.3210256,32.288 C33.4266622,32.288 32.6441059,32.583997 31.9733333,33.176 C31.3025607,33.768003 30.6317982,34.6559941 29.9610256,35.84 L29.9610256,53.408 L23.1575092,53.408 L23.1575092,27.968 L29.050696,27.968 L29.5777289,31.136 C30.5359755,29.8559936 31.6139867,28.8800034 32.8117949,28.208 C34.0096031,27.5359966 35.3910544,27.2 36.9561905,27.2 C38.3935603,27.2 39.6392621,27.5599964 40.6933333,28.28 C41.7474045,29.0000036 42.5139903,30.0159934 42.9931136,31.328 C44.0471848,29.9519931 45.1890781,28.9200034 46.4188278,28.232 C47.6485776,27.5439966 49.0459995,27.2 50.6111355,27.2 C52.6234533,27.2 54.2444627,27.8879931 55.4742125,29.264 Z" id="m" fill="#FFFFFF"></path>
                    <g id="Group" transform="translate(83.047619, 18.400000)" fill="#FFFFFF">
                        <path d="M61.5271062,41.732 L61.4432601,42.368 L59.0356777,42.368 L59.0356777,49.952 L58.3289744,49.952 L58.3289744,42.368 L55.8974359,42.368 L55.8974359,41.732 L61.5271062,41.732 Z M67.1447985,41.732 L67.0609524,42.332 L63.6951282,42.332 L63.6951282,45.392 L66.6057875,45.392 L66.6057875,45.992 L63.6951282,45.992 L63.6951282,49.352 L67.2286447,49.352 L67.2286447,49.952 L62.9764469,49.952 L62.9764469,41.732 L67.1447985,41.732 Z M72.9122161,41.786 C73.2276389,41.9100006 73.5450533,42.0999987 73.8644689,42.356 L73.4811722,42.836 C73.2016836,42.6119989 72.9341771,42.4520005 72.6786447,42.356 C72.4231123,42.2599995 72.13165,42.212 71.8042491,42.212 C71.0296665,42.212 70.4008266,42.507997 69.9177106,43.1 C69.4345947,43.692003 69.1930403,44.6039938 69.1930403,45.836 C69.1930403,46.636004 69.304834,47.3079973 69.5284249,47.852 C69.7520158,48.3960027 70.0574523,48.7979987 70.4447436,49.058 C70.8320349,49.3180013 71.273221,49.448 71.768315,49.448 C72.159599,49.448 72.4909877,49.3900006 72.7624908,49.274 C73.033994,49.1579994 73.3094858,48.9880011 73.5889744,48.764 L73.960293,49.232 C73.3613889,49.8000028 72.6227516,50.084 71.744359,50.084 C71.1055279,50.084 70.5365776,49.9200016 70.0374908,49.592 C69.5384041,49.2639984 69.147126,48.7820032 68.8636447,48.146 C68.5801634,47.5099968 68.4384249,46.7400045 68.4384249,45.836 C68.4384249,44.9319955 68.5861524,44.1620032 68.8816117,43.526 C69.1770711,42.8899968 69.5743382,42.4100016 70.0734249,42.086 C70.5725117,41.7619984 71.1334767,41.6 71.756337,41.6 C72.2115041,41.6 72.5967933,41.6619994 72.9122161,41.786 Z M80.2128205,49.952 L80.2128205,45.932 L76.2840293,45.932 L76.2840293,49.952 L75.565348,49.952 L75.565348,41.732 L76.2840293,41.732 L76.2840293,45.32 L80.2128205,45.32 L80.2128205,41.732 L80.9315018,41.732 L80.9315018,49.952 L80.2128205,49.952 Z M88.9927106,49.952 L88.0464469,49.952 L84.1775458,42.524 C84.2414289,43.524005 84.27337,44.4679956 84.27337,45.356 L84.27337,49.952 L83.5906227,49.952 L83.5906227,41.732 L84.5129304,41.732 L88.4057875,49.16 C88.3419044,48.2319954 88.3099634,47.4200035 88.3099634,46.724 L88.3099634,41.732 L88.9927106,41.732 L88.9927106,49.952 Z M96.2154579,42.086 C96.7185373,42.4100016 97.1098155,42.8919968 97.389304,43.532 C97.6687926,44.1720032 97.8085348,44.9439955 97.8085348,45.848 C97.8085348,46.7360044 97.6707889,47.4979968 97.395293,48.134 C97.1197972,48.7700032 96.7305153,49.2539983 96.2274359,49.586 C95.7243565,49.9180017 95.1334466,50.084 94.4546886,50.084 C93.7919014,50.084 93.2089769,49.9200016 92.7058974,49.592 C92.202818,49.2639984 91.8115399,48.7840032 91.5320513,48.152 C91.2525627,47.5199968 91.1128205,46.7560045 91.1128205,45.86 C91.1128205,44.9719956 91.2525627,44.2080032 91.5320513,43.568 C91.8115399,42.9279968 92.2048143,42.4400017 92.7118864,42.104 C93.2189586,41.7679983 93.7998868,41.6 94.4546886,41.6 C95.1254612,41.6 95.7123784,41.7619984 96.2154579,42.086 Z M92.5621612,43.13 C92.0990087,43.7420031 91.8674359,44.651994 91.8674359,45.86 C91.8674359,47.052006 92.101005,47.951997 92.5681502,48.56 C93.0352954,49.168003 93.6641352,49.472 94.4546886,49.472 C95.2771836,49.472 95.9160051,49.170003 96.3711722,48.566 C96.8263393,47.961997 97.0539194,47.056006 97.0539194,45.848 C97.0539194,44.6319939 96.824343,43.722003 96.3651832,43.118 C95.9060233,42.513997 95.2691982,42.212 94.4546886,42.212 C93.6561499,42.212 93.0253137,42.5179969 92.5621612,43.13 Z M100.647326,41.732 L100.647326,49.304 L104.07304,49.304 L103.977216,49.952 L99.9286447,49.952 L99.9286447,41.732 L100.647326,41.732 Z M109.630842,42.086 C110.133922,42.4100016 110.5252,42.8919968 110.804689,43.532 C111.084177,44.1720032 111.223919,44.9439955 111.223919,45.848 C111.223919,46.7360044 111.086174,47.4979968 110.810678,48.134 C110.535182,48.7700032 110.1459,49.2539983 109.642821,49.586 C109.139741,49.9180017 108.548831,50.084 107.870073,50.084 C107.207286,50.084 106.624361,49.9200016 106.121282,49.592 C105.618203,49.2639984 105.226924,48.7840032 104.947436,48.152 C104.667947,47.5199968 104.528205,46.7560045 104.528205,45.86 C104.528205,44.9719956 104.667947,44.2080032 104.947436,43.568 C105.226924,42.9279968 105.620199,42.4400017 106.127271,42.104 C106.634343,41.7679983 107.215271,41.6 107.870073,41.6 C108.540846,41.6 109.127763,41.7619984 109.630842,42.086 Z M105.977546,43.13 C105.514393,43.7420031 105.282821,44.651994 105.282821,45.86 C105.282821,47.052006 105.51639,47.951997 105.983535,48.56 C106.45068,49.168003 107.07952,49.472 107.870073,49.472 C108.692568,49.472 109.33139,49.170003 109.786557,48.566 C110.241724,47.961997 110.469304,47.056006 110.469304,45.848 C110.469304,44.6319939 110.239728,43.722003 109.780568,43.118 C109.321408,42.513997 108.684583,42.212 107.870073,42.212 C107.071534,42.212 106.440698,42.5179969 105.977546,43.13 Z M117.440513,41.798 C117.783885,41.9300007 118.131244,42.1359986 118.482601,42.416 L118.051392,42.872 C117.755933,42.6399988 117.468463,42.4720005 117.188974,42.368 C116.909486,42.2639995 116.590075,42.212 116.230733,42.212 C115.759595,42.212 115.322401,42.3359988 114.919139,42.584 C114.515877,42.8320012 114.188481,43.2259973 113.936941,43.766 C113.685402,44.3060027 113.559634,44.9879959 113.559634,45.812 C113.559634,47.0360061 113.791206,47.951997 114.254359,48.56 C114.717511,49.168003 115.364318,49.472 116.194799,49.472 C116.83363,49.472 117.408569,49.3280014 117.919634,49.04 L117.919634,46.124 L116.314579,46.124 L116.230733,45.524 L118.626337,45.524 L118.626337,49.412 C117.843769,49.8600022 117.033264,50.084 116.194799,50.084 C115.148713,50.084 114.322237,49.7200036 113.715348,48.992 C113.108459,48.2639964 112.805018,47.204007 112.805018,45.812 C112.805018,44.9079955 112.962727,44.1380032 113.27815,43.502 C113.593573,42.8659968 114.0128,42.3900016 114.535842,42.074 C115.058885,41.7579984 115.623843,41.6 116.230733,41.6 C116.693885,41.6 117.097141,41.6659993 117.440513,41.798 Z M121.465128,41.732 L121.465128,49.952 L120.746447,49.952 L120.746447,41.732 L121.465128,41.732 Z M128.292601,41.732 L128.208755,42.332 L124.84293,42.332 L124.84293,45.392 L127.75359,45.392 L127.75359,45.992 L124.84293,45.992 L124.84293,49.352 L128.376447,49.352 L128.376447,49.952 L124.124249,49.952 L124.124249,41.732 L128.292601,41.732 Z M133.305403,41.822 C133.668738,41.9700007 134.022086,42.1999984 134.365458,42.512 L133.946227,42.968 C133.634797,42.7039987 133.331357,42.5120006 133.035897,42.392 C132.740438,42.2719994 132.405057,42.212 132.029744,42.212 C131.518679,42.212 131.107437,42.3379987 130.796007,42.59 C130.484577,42.8420013 130.328864,43.1799979 130.328864,43.604 C130.328864,43.8920014 130.386758,44.1299991 130.502546,44.318 C130.618334,44.5060009 130.811977,44.6739993 131.08348,44.822 C131.354983,44.9700007 131.742269,45.1199992 132.245348,45.272 C132.788354,45.4400008 133.227544,45.619999 133.56293,45.812 C133.898317,46.004001 134.157838,46.2519985 134.341502,46.556 C134.525166,46.8600015 134.616996,47.2439977 134.616996,47.708 C134.616996,48.1720023 134.505203,48.5839982 134.281612,48.944 C134.058021,49.3040018 133.740606,49.583999 133.329359,49.784 C132.918111,49.984001 132.440992,50.084 131.897985,50.084 C130.875856,50.084 130.001469,49.7400034 129.274799,49.052 L129.682051,48.596 C130.017438,48.8840014 130.356811,49.1019993 130.700183,49.25 C131.043555,49.3980007 131.438826,49.472 131.886007,49.472 C132.476926,49.472 132.958038,49.3160016 133.329359,49.004 C133.70068,48.6919984 133.886337,48.2680027 133.886337,47.732 C133.886337,47.3959983 133.824451,47.1200011 133.700678,46.904 C133.576904,46.6879989 133.377272,46.5020008 133.101777,46.346 C132.826281,46.1899992 132.436999,46.0320008 131.933919,45.872 C131.095454,45.6159987 130.496559,45.3200017 130.137216,44.984 C129.777874,44.6479983 129.598205,44.1920029 129.598205,43.616 C129.598205,43.2319981 129.700017,42.8860015 129.903645,42.578 C130.107272,42.2699985 130.390749,42.0300009 130.754084,41.858 C131.117419,41.6859991 131.53465,41.6 132.005788,41.6 C132.508867,41.6 132.942068,41.6739993 133.305403,41.822 Z" id="TECHNOLOGIES"></path>
                        <path d="M30.4144922,11.47436 C31.571857,12.769373 32.1505307,14.5311666 32.1505307,16.7597936 L32.1505307,34.1972069 L25.7474797,34.1972069 L25.7474797,17.8439851 C25.7474797,15.4948918 24.9658944,14.3203627 23.4027004,14.3203627 C22.5609806,14.3203627 21.8244868,14.5914079 21.1931969,15.1335064 C20.5619071,15.6756048 19.9155962,16.5188564 19.2542449,17.6632865 L19.2542449,34.1972069 L12.8511939,34.1972069 L12.8511939,17.8439851 C12.8511939,15.4948918 12.0696086,14.3203627 10.5064147,14.3203627 C9.66469482,14.3203627 8.92820101,14.5989369 8.29691114,15.1560937 C7.66562127,15.7132504 7.03434086,16.548973 6.40305099,17.6632865 L6.40305099,34.1972069 L0,34.1972069 L0,10.2546446 L5.54630473,10.2546446 L6.04231572,13.2361712 C6.9441584,12.031508 7.95871619,11.112966 9.08601954,10.4805178 C10.2133229,9.84806963 11.5134599,9.53185027 12.9864696,9.53185027 C14.3392336,9.53185027 15.5116115,9.87065672 16.5036385,10.5482798 C17.4956654,11.2259029 18.2171287,12.18209 18.6680501,13.4168698 C19.660077,12.1218568 20.7347567,11.1506116 21.8921215,10.5031052 C23.0494863,9.85559866 24.3646538,9.53185027 25.8376635,9.53185027 C27.7315331,9.53185027 29.2571274,10.1793471 30.4144922,11.47436 Z M56.6805288,12.8973614 C58.6946441,15.1410467 59.7016867,18.250537 59.7016867,22.2259257 C59.7016867,24.7557186 59.2432569,26.9767831 58.3263835,28.889186 C57.4095101,30.8015889 56.0868273,32.2848083 54.3582955,33.3388886 C52.6297638,34.392969 50.5931329,34.9200012 48.248342,34.9200012 C44.6710327,34.9200012 41.8678471,33.7981754 39.8387011,31.5544901 C37.809555,29.3108048 36.7949972,26.2013145 36.7949972,22.2259257 C36.7949972,19.6961329 37.2534271,17.4750684 38.1703004,15.5626655 C39.0871738,13.6502626 40.4098566,12.1670432 42.1383884,11.1129629 C43.8669202,10.0588825 45.9185815,9.53185027 48.2934339,9.53185027 C51.8707432,9.53185027 54.6664135,10.6536761 56.6805288,12.8973614 Z M44.6635352,16.2402852 C43.8669075,17.5202399 43.4685997,19.5154334 43.4685997,22.2259257 C43.4685997,24.936418 43.8669075,26.9316116 44.6635352,28.2115663 C45.4601629,29.491521 46.6550866,30.1314888 48.248342,30.1314888 C49.8415974,30.1314888 51.036521,29.491521 51.8331487,28.2115663 C52.6297764,26.9316116 53.0280842,24.936418 53.0280842,22.2259257 C53.0280842,19.5154334 52.6372916,17.5202399 51.8556946,16.2402852 C51.0740976,14.9603305 49.8866893,14.3203627 48.2934339,14.3203627 C46.6701171,14.3203627 45.4601629,14.9603305 44.6635352,16.2402852 Z M85.2687987,0.722794333 L85.2687987,34.1972069 L79.6323102,34.1972069 L79.2715749,31.2608549 C77.5881353,33.700298 75.3035014,34.9200012 72.4176049,34.9200012 C69.4715854,34.9200012 67.2245278,33.7831173 65.6763645,31.5093155 C64.1282013,29.2355136 63.3541313,26.1410813 63.3541313,22.2259257 C63.3541313,19.7563661 63.7524391,17.5654177 64.5490668,15.6530148 C65.3456945,13.7406119 66.4804962,12.2423344 67.9535059,11.1581375 C69.4265156,10.0739406 71.1249605,9.53185027 73.0488916,9.53185027 C75.2734368,9.53185027 77.2123695,10.3299277 78.8657477,11.9261065 L78.8657477,0 L85.2687987,0.722794333 Z M76.79152,29.4312818 C77.5129941,28.9644747 78.2043965,28.2341586 78.8657477,27.2403114 L78.8657477,16.5339204 C78.2344579,15.7810058 77.5956622,15.2163284 76.9493416,14.8398712 C76.3030211,14.4634139 75.559012,14.2751881 74.7172922,14.2751881 C73.2442825,14.2751881 72.0944503,14.9226849 71.2677612,16.2176979 C70.4410721,17.5127108 70.0277337,19.5154334 70.0277337,22.2259257 C70.0277337,25.087001 70.3959806,27.1198397 71.1324855,28.3245029 C71.8689903,29.5291662 72.9286396,30.1314888 74.311465,30.1314888 C75.2433691,30.1314888 76.0700458,29.8980888 76.79152,29.4312818 Z M111.151554,34.1972069 L105.605249,34.1972069 L105.289606,30.989807 C104.447886,32.3149366 103.425813,33.3012398 102.223356,33.9487463 C101.020899,34.5962528 99.6230642,34.9200012 98.0298088,34.9200012 C95.8653864,34.9200012 94.2120329,34.2649754 93.0696989,32.9549041 C91.9273648,31.6448328 91.3562064,29.815278 91.3562064,27.4661847 L91.3562064,10.2546446 L97.7592574,10.2546446 L97.7592574,26.653041 C97.7592574,27.9179374 97.9696842,28.8138923 98.3905441,29.3409325 C98.811404,29.8679726 99.4727454,30.1314888 100.374588,30.1314888 C102.088089,30.1314888 103.546046,29.0924823 104.748503,27.0144382 L104.748503,10.2546446 L111.151554,10.2546446 L111.151554,34.1972069 Z M134.058244,12.4230276 L131.623281,16.0821739 C129.609165,14.8172775 127.625141,14.1848388 125.671149,14.1848388 C124.618999,14.1848388 123.807353,14.3805936 123.236186,14.7721092 C122.665019,15.1636247 122.379439,15.690657 122.379439,16.3532218 C122.379439,16.8350871 122.507198,17.2416548 122.762721,17.5729372 C123.018243,17.9042196 123.499218,18.220439 124.205662,18.5216048 C124.912105,18.8227706 125.971754,19.1841642 127.384641,19.6057963 C129.909801,20.2984777 131.788611,21.2245486 133.02113,22.384037 C134.253648,23.5435254 134.869898,25.1321512 134.869898,27.1499621 C134.869898,28.7461409 134.411468,30.1314829 133.494595,31.3060296 C132.577721,32.4805762 131.337706,33.3765311 129.774512,33.993921 C128.211318,34.6113109 126.467782,34.9200012 124.543851,34.9200012 C122.529736,34.9200012 120.696016,34.6113109 119.042638,33.993921 C117.38926,33.3765311 115.976394,32.5257504 114.803999,31.4415535 L117.960432,27.9179311 C119.974548,29.4839933 122.108877,30.2670127 124.363483,30.2670127 C125.56594,30.2670127 126.520376,30.0336127 127.226819,29.5668057 C127.933263,29.0999987 128.286479,28.4600309 128.286479,27.6468832 C128.286479,27.014435 128.151205,26.5175189 127.880652,26.1561199 C127.610099,25.794721 127.114093,25.4559145 126.392619,25.1396904 C125.671145,24.8234663 124.543859,24.4545437 123.010726,24.0329116 C120.605812,23.3703468 118.8247,22.4292177 117.667335,21.2094962 C116.50997,19.9897747 115.931296,18.4764392 115.931296,16.6694443 C115.931296,15.3141982 116.322089,14.0944949 117.103686,13.010298 C117.885283,11.9261011 118.990024,11.0753204 120.417941,10.4579305 C121.845859,9.84054059 123.506728,9.53185027 125.400597,9.53185027 C128.767477,9.53185027 131.65333,10.4955664 134.058244,12.4230276 Z" id="modus"></path>
                    </g>
                </g>
            </g>
        </g>
    </g>
</svg>