<?xml version="1.0" encoding="utf-8"?>
<!-- Generator: Adobe Illustrator 16.0.0, SVG Export Plug-In . SVG Version: 6.00 Build 0)  -->
<!DOCTYPE svg PUBLIC "-//W3C//DTD SVG 1.1//EN" "http://www.w3.org/Graphics/SVG/1.1/DTD/svg11.dtd">
<svg version="1.1" id="Layer_1" xmlns="http://www.w3.org/2000/svg" xmlns:xlink="http://www.w3.org/1999/xlink" x="0px" y="0px"
	 width="89.563px" height="104px" viewBox="0 0 89.563 104" enable-background="new 0 0 89.563 104" xml:space="preserve">
<title>logo-svg</title>
<desc>Created with Sketch.</desc>
<polygon id="Polygon" fill="#0F58A4" stroke="#0F58A4" stroke-width="2" points="45,2 88.301,27 88.301,77 45,102 1.699,77 
	1.699,27 "/>
<path id="m" fill="#FFFFFF" d="M64.47,38.58c1.54,1.72,2.31,4.06,2.31,7.02v23.16h-8.52V47.04c0-3.12-1.04-4.68-3.12-4.68
	c-1.12,0-2.1,0.36-2.94,1.08c-0.84,0.72-1.7,1.84-2.58,3.36v21.96H41.1V47.04c0-3.12-1.04-4.68-3.12-4.68
	c-1.12,0-2.1,0.37-2.94,1.11c-0.84,0.74-1.68,1.85-2.52,3.33v21.96H24v-31.8h7.38l0.66,3.96c1.2-1.6,2.55-2.82,4.05-3.66
	c1.5-0.84,3.23-1.26,5.19-1.26c1.8,0,3.36,0.45,4.68,1.35s2.28,2.17,2.88,3.81c1.32-1.72,2.75-3.01,4.29-3.87S56.42,36,58.38,36
	C60.9,36,62.93,36.86,64.47,38.58z"/>
</svg>
