<?xml version="1.0" encoding="utf-8"?>
<!-- Generator: Adobe Illustrator 16.0.0, SVG Export Plug-In . SVG Version: 6.00 Build 0)  -->
<!DOCTYPE svg PUBLIC "-//W3C//DTD SVG 1.1//EN" "http://www.w3.org/Graphics/SVG/1.1/DTD/svg11.dtd">
<svg version="1.1" id="Layer_1" xmlns="http://www.w3.org/2000/svg" xmlns:xlink="http://www.w3.org/1999/xlink" x="0px" y="0px"
	 width="100px" height="100px" viewBox="0 0 100 100" enable-background="new 0 0 100 100" xml:space="preserve">
<g id="Rectangle-3">
	<path fill="none" stroke="#FFFFFF" stroke-width="2" d="M50.001,3.406L9.723,26.702V73.3l40.279,23.295L90.276,73.3V26.702
		L50.001,3.406z"/>
</g>
<path id="m" fill="#FFFFFF" d="M68.276,36.757c1.475,1.65,2.212,3.895,2.212,6.735v22.225h-8.16V44.875
	c0-2.994-0.996-4.491-2.989-4.491c-1.073,0-2.011,0.346-2.816,1.037c-0.804,0.691-1.628,1.766-2.471,3.225v21.072H45.89V44.875
	c0-2.994-0.996-4.491-2.989-4.491c-1.073,0-2.011,0.355-2.817,1.065c-0.804,0.711-1.608,1.775-2.413,3.196v21.072h-8.158V35.203
	h7.069l0.632,3.8c1.149-1.535,2.441-2.706,3.88-3.513c1.436-0.806,3.092-1.209,4.97-1.209c1.725,0,3.218,0.432,4.483,1.296
	c1.264,0.863,2.184,2.082,2.76,3.656c1.263-1.65,2.634-2.888,4.109-3.714c1.475-0.825,3.151-1.238,5.027-1.238
	C64.855,34.281,66.801,35.106,68.276,36.757z"/>
</svg>
