<?xml version="1.0" encoding="utf-8"?>
<!-- Generator: Adobe Illustrator 16.0.0, SVG Export Plug-In . SVG Version: 6.00 Build 0)  -->
<!DOCTYPE svg PUBLIC "-//W3C//DTD SVG 1.1//EN" "http://www.w3.org/Graphics/SVG/1.1/DTD/svg11.dtd">
<svg version="1.1" id="Layer_1" xmlns="http://www.w3.org/2000/svg" xmlns:xlink="http://www.w3.org/1999/xlink" x="0px" y="0px"
	 width="213px" height="80px" viewBox="0 0 213 80" enable-background="new 0 0 213 80" xml:space="preserve">
<title>logo-svg</title>
<desc>Created with Sketch.</desc>
<g id="logo-svg" transform="translate(95.000000, 20.000000)">
	<g>
		<g id="Rectangle-3">
			<path fill="none" stroke="#FFFFFF" stroke-width="2" d="M-60.073-18.845L-93.651,0.577v38.847l33.578,19.421l33.578-19.421V0.577
				L-60.073-18.845z"/>
		</g>
		<path id="m" fill="#FFFFFF" d="M-44.526,9.264c1.23,1.376,1.845,3.248,1.845,5.616v18.528h-6.804V16.032
			c0-2.496-0.83-3.744-2.491-3.744c-0.895,0-1.677,0.288-2.348,0.864c-0.671,0.576-1.357,1.472-2.06,2.688v17.568h-6.804V16.032
			c0-2.496-0.831-3.744-2.492-3.744c-0.894,0-1.677,0.296-2.348,0.888c-0.67,0.592-1.341,1.48-2.012,2.664v17.568h-6.803V7.968
			h5.893l0.527,3.168c0.958-1.28,2.036-2.256,3.234-2.928C-65.99,7.536-64.609,7.2-63.044,7.2c1.438,0,2.683,0.36,3.737,1.08
			c1.054,0.72,1.821,1.736,2.3,3.048c1.054-1.376,2.196-2.408,3.426-3.096c1.229-0.688,2.627-1.032,4.192-1.032
			C-47.376,7.2-45.755,7.888-44.526,9.264z"/>
		<g id="Group" transform="translate(83.047619, 18.400000)">
			<path id="TECHNOLOGIES" fill="#FFFFFF" d="M-38.473,21.732l-0.084,0.636h-2.406v7.584h-0.707v-7.584h-2.432v-0.636H-38.473z
				 M-32.855,21.732l-0.084,0.601h-3.366v3.06h2.911v0.601h-2.911v3.359h3.534v0.6h-4.253v-8.22H-32.855z M-27.088,21.786
				c0.315,0.125,0.633,0.314,0.952,0.57l-0.383,0.48c-0.279-0.225-0.547-0.385-0.803-0.48s-0.547-0.145-0.875-0.145
				c-0.774,0-1.403,0.297-1.887,0.889c-0.482,0.592-0.725,1.504-0.725,2.736c0,0.8,0.112,1.472,0.336,2.016s0.529,0.946,0.916,1.206
				c0.388,0.26,0.828,0.39,1.324,0.39c0.391,0,0.723-0.058,0.994-0.174c0.271-0.115,0.547-0.285,0.826-0.51l0.371,0.468
				c-0.599,0.568-1.338,0.853-2.216,0.853c-0.639,0-1.208-0.164-1.707-0.492s-0.89-0.811-1.174-1.446
				c-0.283-0.636-0.425-1.405-0.425-2.31s0.147-1.674,0.443-2.311c0.295-0.636,0.692-1.115,1.191-1.439s1.061-0.486,1.684-0.486
				C-27.788,21.6-27.403,21.663-27.088,21.786z M-19.788,29.952v-4.02h-3.928v4.02h-0.719v-8.22h0.719v3.589h3.928v-3.589h0.719
				v8.22H-19.788z M-11.007,29.952h-0.947l-3.869-7.428c0.064,1,0.096,1.944,0.096,2.832v4.596h-0.682v-8.22h0.922l3.893,7.429
				c-0.063-0.929-0.096-1.74-0.096-2.437v-4.992h0.684V29.952z M-3.784,22.086c0.502,0.324,0.894,0.806,1.174,1.445
				c0.279,0.641,0.418,1.412,0.418,2.316c0,0.889-0.137,1.65-0.412,2.286s-0.665,1.12-1.168,1.452
				c-0.504,0.332-1.094,0.498-1.773,0.498c-0.662,0-1.245-0.164-1.748-0.492c-0.504-0.328-0.895-0.809-1.174-1.44
				s-0.42-1.396-0.42-2.292c0-0.888,0.141-1.652,0.42-2.292s0.672-1.128,1.18-1.464C-6.781,21.768-6.2,21.6-5.546,21.6
				C-4.875,21.6-4.288,21.762-3.784,22.086z M-7.438,23.13c-0.463,0.612-0.694,1.521-0.694,2.729c0,1.192,0.233,2.092,0.7,2.7
				c0.468,0.608,1.097,0.912,1.887,0.912c0.822,0,1.462-0.302,1.917-0.906s0.683-1.51,0.683-2.718c0-1.216-0.229-2.126-0.689-2.73
				c-0.459-0.604-1.096-0.906-1.91-0.906C-6.344,22.211-6.975,22.518-7.438,23.13z M0.648,21.732v7.572h3.426l-0.096,0.647h-4.049
				v-8.22H0.648z M9.631,22.086c0.503,0.324,0.894,0.806,1.174,1.445c0.279,0.641,0.419,1.412,0.419,2.316
				c0,0.889-0.138,1.65-0.413,2.286s-0.665,1.12-1.168,1.452s-1.094,0.498-1.772,0.498c-0.663,0-1.246-0.164-1.749-0.492
				s-0.895-0.809-1.174-1.44s-0.419-1.396-0.419-2.292c0-0.888,0.14-1.652,0.419-2.292s0.673-1.128,1.18-1.464S7.215,21.6,7.87,21.6
				C8.54,21.6,9.128,21.762,9.631,22.086z M5.978,23.13c-0.463,0.612-0.695,1.521-0.695,2.729c0,1.192,0.234,2.092,0.701,2.7
				s1.096,0.912,1.887,0.912c0.822,0,1.461-0.302,1.916-0.906s0.684-1.51,0.684-2.718c0-1.216-0.23-2.126-0.689-2.73
				c-0.459-0.604-1.096-0.906-1.91-0.906C7.072,22.211,6.441,22.518,5.978,23.13z M17.441,21.798
				c0.344,0.132,0.69,0.338,1.042,0.618l-0.431,0.455c-0.296-0.231-0.584-0.399-0.863-0.504c-0.279-0.104-0.599-0.156-0.958-0.156
				c-0.472,0-0.908,0.125-1.312,0.373s-0.73,0.642-0.982,1.182s-0.377,1.223-0.377,2.046c0,1.224,0.231,2.14,0.694,2.748
				c0.464,0.608,1.11,0.912,1.94,0.912c0.639,0,1.214-0.144,1.725-0.433v-2.916h-1.604l-0.084-0.6h2.396v3.889
				c-0.782,0.447-1.593,0.672-2.432,0.672c-1.046,0-1.873-0.364-2.479-1.092c-0.607-0.729-0.911-1.789-0.911-3.181
				c0-0.903,0.157-1.674,0.474-2.31c0.314-0.637,0.734-1.112,1.258-1.428c0.522-0.316,1.088-0.475,1.694-0.475
				C16.695,21.6,17.097,21.666,17.441,21.798z M21.465,21.732v8.22h-0.719v-8.22H21.465z M28.292,21.732l-0.084,0.601h-3.365v3.06
				h2.91v0.601h-2.91v3.359h3.533v0.6h-4.252v-8.22H28.292z M33.306,21.823c0.363,0.147,0.717,0.377,1.06,0.689l-0.419,0.456
				c-0.312-0.265-0.615-0.456-0.91-0.576c-0.296-0.12-0.631-0.181-1.007-0.181c-0.511,0-0.922,0.127-1.233,0.379
				s-0.467,0.59-0.467,1.014c0,0.288,0.058,0.526,0.174,0.714c0.115,0.188,0.309,0.356,0.58,0.505
				c0.271,0.147,0.659,0.297,1.162,0.449c0.543,0.168,0.982,0.348,1.317,0.54s0.595,0.44,0.778,0.744s0.275,0.688,0.275,1.151
				c0,0.465-0.111,0.877-0.335,1.236c-0.224,0.36-0.541,0.641-0.952,0.84c-0.411,0.2-0.889,0.301-1.432,0.301
				c-1.021,0-1.896-0.344-2.623-1.032l0.407-0.456c0.335,0.288,0.675,0.506,1.019,0.654c0.344,0.147,0.738,0.222,1.186,0.222
				c0.591,0,1.072-0.156,1.443-0.468c0.371-0.313,0.557-0.736,0.557-1.272c0-0.336-0.062-0.612-0.186-0.827
				c-0.123-0.217-0.323-0.402-0.599-0.559s-0.665-0.314-1.168-0.475c-0.839-0.256-1.438-0.551-1.796-0.888
				c-0.359-0.336-0.539-0.792-0.539-1.368c0-0.384,0.102-0.729,0.305-1.037c0.203-0.309,0.487-0.549,0.851-0.721
				s0.78-0.258,1.251-0.258C32.509,21.6,32.943,21.674,33.306,21.823z"/>
			<path id="modus" fill="#FFFFFF" d="M-69.586-8.525c1.157,1.295,1.736,3.057,1.736,5.285v17.438h-6.403V-2.156
				c0-2.349-0.781-3.524-2.345-3.524c-0.842,0-1.578,0.271-2.209,0.813c-0.631,0.542-1.277,1.385-1.939,2.53v16.534h-6.403V-2.156
				c0-2.349-0.782-3.524-2.345-3.524c-0.842,0-1.579,0.279-2.209,0.836c-0.631,0.557-1.263,1.393-1.894,2.507v16.534H-100V-9.745
				h5.546l0.496,2.981c0.902-1.205,1.917-2.123,3.044-2.756c1.127-0.632,2.427-0.949,3.9-0.949c1.353,0,2.525,0.339,3.517,1.017
				s1.713,1.634,2.165,2.869c0.992-1.295,2.066-2.266,3.224-2.914c1.157-0.647,2.472-0.972,3.945-0.972
				C-72.268-10.468-70.743-9.821-69.586-8.525z M-43.319-7.103c2.014,2.244,3.021,5.353,3.021,9.329c0,2.53-0.459,4.751-1.376,6.663
				s-2.239,3.396-3.968,4.449c-1.729,1.055-3.766,1.582-6.11,1.582c-3.577,0-6.38-1.122-8.409-3.365
				c-2.029-2.244-3.044-5.354-3.044-9.329c0-2.53,0.458-4.751,1.375-6.663c0.917-1.913,2.239-3.396,3.968-4.45
				c1.729-1.054,3.781-1.582,6.155-1.582C-48.13-10.468-45.334-9.346-43.319-7.103z M-55.337-3.76
				c-0.797,1.28-1.195,3.275-1.195,5.986c0,2.71,0.398,4.706,1.195,5.985c0.797,1.28,1.992,1.92,3.585,1.92s2.788-0.64,3.585-1.92
				c0.797-1.279,1.195-3.275,1.195-5.985c0-2.71-0.391-4.706-1.173-5.986c-0.782-1.28-1.97-1.92-3.563-1.92
				C-53.33-5.68-54.54-5.04-55.337-3.76z M-14.731-19.277v33.475h-5.637l-0.36-2.937c-1.684,2.439-3.968,3.659-6.854,3.659
				c-2.945,0-5.193-1.137-6.74-3.411c-1.549-2.273-2.322-5.368-2.322-9.283c0-2.47,0.398-4.661,1.194-6.573
				c0.797-1.913,1.932-3.411,3.404-4.495c1.474-1.084,3.171-1.626,5.096-1.626c2.225,0,4.163,0.798,5.817,2.395V-20L-14.731-19.277z
				 M-23.208,9.431c0.721-0.467,1.412-1.196,2.074-2.19V-3.466c-0.632-0.753-1.271-1.318-1.917-1.694
				c-0.646-0.376-1.391-0.564-2.231-0.564c-1.474,0-2.623,0.647-3.45,1.942s-1.24,3.298-1.24,6.008c0,2.86,0.368,4.894,1.104,6.099
				s1.797,1.807,3.18,1.807C-24.757,10.131-23.93,9.898-23.208,9.431z M11.152,14.198H5.605L5.29,10.99
				c-0.842,1.325-1.864,2.312-3.066,2.959c-1.203,0.647-2.601,0.972-4.193,0.972c-2.165,0-3.818-0.655-4.961-1.965
				c-1.143-1.311-1.713-3.141-1.713-5.489V-9.745h6.402V6.653c0,1.266,0.211,2.161,0.631,2.688c0.422,0.526,1.083,0.79,1.984,0.79
				c1.714,0,3.172-1.039,4.374-3.117V-9.745h6.403V14.198z M34.058-7.577l-2.435,3.659c-2.015-1.265-3.998-1.897-5.952-1.897
				c-1.053,0-1.863,0.196-2.436,0.587c-0.57,0.392-0.855,0.919-0.855,1.582c0,0.482,0.127,0.888,0.383,1.22
				c0.256,0.331,0.736,0.647,1.443,0.949c0.706,0.301,1.766,0.662,3.178,1.084c2.525,0.692,4.404,1.619,5.637,2.778
				c1.232,1.159,1.85,2.748,1.85,4.766c0,1.597-0.459,2.981-1.376,4.156s-2.157,2.07-3.72,2.688
				c-1.563,0.617-3.307,0.926-5.23,0.926c-2.015,0-3.848-0.309-5.502-0.926c-1.652-0.618-3.066-1.469-4.238-2.553l3.156-3.523
				c2.014,1.565,4.148,2.349,6.403,2.349c1.202,0,2.157-0.233,2.863-0.7s1.06-1.107,1.06-1.92c0-0.633-0.135-1.129-0.406-1.49
				c-0.27-0.361-0.766-0.701-1.487-1.018c-0.722-0.315-1.849-0.685-3.382-1.105c-2.405-0.663-4.187-1.604-5.344-2.824
				s-1.736-2.733-1.736-4.54c0-1.355,0.391-2.575,1.173-3.659c0.782-1.084,1.886-1.935,3.313-2.552
				c1.429-0.617,3.09-0.926,4.983-0.926C28.767-10.468,31.654-9.504,34.058-7.577z"/>
		</g>
	</g>
</g>
</svg>
